<svg width="36" height="36" viewBox="0 0 36 36" fill="none" xmlns="http://www.w3.org/2000/svg">
<path d="M22.5 34.125H13.5C5.355 34.125 1.875 30.645 1.875 22.5V13.5C1.875 5.355 5.355 1.875 13.5 1.875H22.5C30.645 1.875 34.125 5.355 34.125 13.5V22.5C34.125 30.645 30.645 34.125 22.5 34.125ZM13.5 4.125C6.585 4.125 4.125 6.585 4.125 13.5V22.5C4.125 29.415 6.585 31.875 13.5 31.875H22.5C29.415 31.875 31.875 29.415 31.875 22.5V13.5C31.875 6.585 29.415 4.125 22.5 4.125H13.5Z" fill="#4D4D4D"/>
<path d="M18 24.375C14.49 24.375 11.625 21.51 11.625 18C11.625 14.49 14.49 11.625 18 11.625C21.51 11.625 24.375 14.49 24.375 18C24.375 21.51 21.51 24.375 18 24.375ZM18 13.875C15.72 13.875 13.875 15.72 13.875 18C13.875 20.28 15.72 22.125 18 22.125C20.28 22.125 22.125 20.28 22.125 18C22.125 15.72 20.28 13.875 18 13.875Z" fill="#4D4D4D"/>
<path d="M25.5 11.25C25.305 11.25 25.11 11.205 24.93 11.13C24.75 11.055 24.585 10.95 24.435 10.815C24.3 10.665 24.18 10.5 24.105 10.32C24.03 10.14 24 9.94501 24 9.75001C24 9.55501 24.03 9.36001 24.105 9.18001C24.195 8.98501 24.3 8.83501 24.435 8.68501C24.51 8.62501 24.585 8.55001 24.66 8.50501C24.75 8.44501 24.84 8.40001 24.93 8.37001C25.02 8.32501 25.11 8.29501 25.215 8.28001C25.695 8.17501 26.205 8.34001 26.565 8.68501C26.7 8.83501 26.805 8.98501 26.88 9.18001C26.955 9.36001 27 9.55501 27 9.75001C27 9.94501 26.955 10.14 26.88 10.32C26.805 10.5 26.7 10.665 26.565 10.815C26.415 10.95 26.25 11.055 26.07 11.13C25.89 11.205 25.695 11.25 25.5 11.25Z" fill="#4D4D4D"/>
</svg>
