<svg width="40" height="36" viewBox="0 0 40 36" fill="none" xmlns="http://www.w3.org/2000/svg">
<path d="M18.3332 22.125H36.6665C37.3498 22.125 37.9165 21.615 37.9165 21V9C37.9165 5.07 34.3665 1.875 29.9998 1.875H14.9998C14.3165 1.875 13.7498 2.385 13.7498 3V18C13.7498 20.28 15.7998 22.125 18.3332 22.125ZM35.4165 19.875H18.3332C17.1832 19.875 16.2498 19.035 16.2498 18V4.125H29.9998C32.9832 4.125 35.4165 6.315 35.4165 9V19.875Z" fill="#FB9156"/>
<path d="M8.33317 31.125H9.99984C10.6832 31.125 11.2498 30.615 11.2498 30C11.2498 28.965 12.1832 28.125 13.3332 28.125C14.4832 28.125 15.4165 28.965 15.4165 30C15.4165 30.615 15.9832 31.125 16.6665 31.125H23.3332C24.0165 31.125 24.5832 30.615 24.5832 30C24.5832 28.965 25.5165 28.125 26.6665 28.125C27.8165 28.125 28.7498 28.965 28.7498 30C28.7498 30.615 29.3165 31.125 29.9998 31.125H31.6665C35.1165 31.125 37.9165 28.605 37.9165 25.5V21C37.9165 20.385 37.3498 19.875 36.6665 19.875H18.3332C17.1832 19.875 16.2498 19.035 16.2498 18V7.5C16.2498 6.885 15.6832 6.375 14.9998 6.375H11.9332C10.2832 6.375 8.76648 7.17002 7.94982 8.46002L5.09983 12.945C4.88316 13.29 4.88316 13.725 5.09983 14.07C5.3165 14.415 5.73315 14.625 6.18316 14.625H8.33317C8.5665 14.625 8.74984 14.79 8.74984 15V19.5C8.74984 19.71 8.5665 19.875 8.33317 19.875H3.33317C2.64983 19.875 2.08317 20.385 2.08317 21V25.5C2.08317 28.605 4.88317 31.125 8.33317 31.125ZM8.91651 28.875H8.33317C6.2665 28.875 4.58317 27.36 4.58317 25.5V22.125H8.33317C9.93317 22.125 11.2498 20.94 11.2498 19.5V15C11.2498 13.56 9.94984 12.375 8.33317 12.375L10.1165 9.57001C10.4832 8.98501 11.1832 8.625 11.9332 8.625H13.7498V18C13.7498 20.28 15.7998 22.125 18.3332 22.125H35.4165V25.5C35.4165 27.36 33.7332 28.875 31.6665 28.875H31.0832C30.5332 27.15 28.7665 25.875 26.6665 25.875C24.5665 25.875 22.7998 27.15 22.2498 28.875H17.7332C17.1832 27.15 15.4165 25.875 13.3165 25.875C11.2165 25.875 9.46651 27.15 8.91651 28.875Z" fill="#FB9156"/>
<path d="M26.6667 34.125C29.2 34.125 31.25 32.28 31.25 30C31.25 27.72 29.2 25.875 26.6667 25.875C24.1333 25.875 22.0833 27.72 22.0833 30C22.0833 32.28 24.1333 34.125 26.6667 34.125ZM26.6667 28.125C27.8167 28.125 28.75 28.965 28.75 30C28.75 31.035 27.8167 31.875 26.6667 31.875C25.5167 31.875 24.5833 31.035 24.5833 30C24.5833 28.965 25.5167 28.125 26.6667 28.125Z" fill="#FB9156"/>
<path d="M13.3332 34.125C15.8665 34.125 17.9165 32.28 17.9165 30C17.9165 27.72 15.8665 25.875 13.3332 25.875C10.7998 25.875 8.74984 27.72 8.74984 30C8.74984 32.28 10.7998 34.125 13.3332 34.125ZM13.3332 28.125C14.4832 28.125 15.4165 28.965 15.4165 30C15.4165 31.035 14.4832 31.875 13.3332 31.875C12.1832 31.875 11.2498 31.035 11.2498 30C11.2498 28.965 12.1832 28.125 13.3332 28.125Z" fill="#FB9156"/>
<path d="M3.33333 22.125H8.33333C9.93333 22.125 11.25 20.94 11.25 19.5V15C11.25 13.56 9.93333 12.375 8.33333 12.375H6.18332C5.73332 12.375 5.31666 12.585 5.1 12.945L2.25001 17.445C2.15001 17.61 2.08333 17.805 2.08333 18V21C2.08333 21.615 2.65 22.125 3.33333 22.125ZM8.33333 14.625C8.56667 14.625 8.75 14.79 8.75 15V19.5C8.75 19.71 8.56667 19.875 8.33333 19.875H4.58333V18.3L6.91666 14.625H8.33333Z" fill="#FB9156"/>
</svg>
