<svg width="80" height="80" viewBox="0 0 80 80" fill="none" xmlns="http://www.w3.org/2000/svg">
<path d="M40.0001 75.8333C20.2334 75.8333 4.16675 59.7666 4.16675 40C4.16675 20.2333 20.2334 4.16663 40.0001 4.16663C59.7668 4.16663 75.8334 20.2333 75.8334 40C75.8334 59.7666 59.7668 75.8333 40.0001 75.8333ZM40.0001 9.16663C23.0001 9.16663 9.16675 23 9.16675 40C9.16675 57 23.0001 70.8333 40.0001 70.8333C57.0001 70.8333 70.8334 57 70.8334 40C70.8334 23 57.0001 9.16663 40.0001 9.16663Z" fill="#60B581"/>
<path d="M35.2666 51.9333C34.5999 51.9333 33.9666 51.6666 33.4999 51.2L24.0666 41.7666C23.0999 40.8 23.0999 39.2 24.0666 38.2333C25.0332 37.2666 26.6332 37.2666 27.5999 38.2333L35.2666 45.9L52.3999 28.7666C53.3666 27.8 54.9666 27.8 55.9332 28.7666C56.8999 29.7333 56.8999 31.3333 55.9332 32.3L37.0332 51.2C36.5666 51.6666 35.9332 51.9333 35.2666 51.9333Z" fill="#60B581"/>
</svg>
